<svg width="32" height="32" fill="none" xmlns="http://www.w3.org/2000/svg"><path d="M31.772 4.724 16.8 31.499a.814.814 0 0 1-1.417.006L.112 4.726a.814.814 0 0 1 .85-1.204l14.989 2.68a.814.814 0 0 0 .289-.001l14.676-2.675a.814.814 0 0 1 .856 1.198Z" fill="url(#a)"/><path d="m23.091.008-11.08 2.171a.407.407 0 0 0-.329.375l-.681 11.512a.407.407 0 0 0 .498.421l3.085-.712a.407.407 0 0 1 .49.478l-.917 4.488a.407.407 0 0 0 .517.471l1.905-.579c.296-.09.58.17.517.472l-1.456 7.05c-.091.44.495.681.74.303l.163-.252 9.03-18.02a.407.407 0 0 0-.441-.582l-3.176.613a.407.407 0 0 1-.468-.512L23.56.52a.407.407 0 0 0-.47-.512Z" fill="url(#b)"/><defs><linearGradient id="a" x1="-.828%" x2="57.636%" y1="7.652%" y2="78.411%"><stop offset="0%" stop-color="#41D1FF"/><stop offset="100%" stop-color="#BD34FE"/></linearGradient><linearGradient id="b" x1="43.376%" x2="50.316%" y1="2.242%" y2="89.03%"><stop offset="0%" stop-color="#FFEA83"/><stop offset="8.333%" stop-color="#FFDD35"/><stop offset="100%" stop-color="#FFA800"/></linearGradient></defs></svg>