<svg width="32" height="32" viewBox="0 0 32 32" fill="none" xmlns="http://www.w3.org/2000/svg">
  <path opacity="0.5" d="M31.7723 4.7238L16.7988 31.499C16.4896 32.0518 15.6953 32.055 15.3816 31.5049L0.111206 4.72629C-0.230709 4.12688 0.281914 3.40071 0.96126 3.52224L15.9508 6.2014C16.0465 6.21849 16.1444 6.21832 16.24 6.2009L30.916 3.52597C31.5931 3.40258 32.1081 4.12314 31.7723 4.7238Z" fill="#7A7A7A"/>
  <path d="M23.0911 0.00785783L12.0103 2.17913C11.9218 2.19647 11.8416 2.24275 11.7822 2.31068C11.7228 2.37861 11.6877 2.46435 11.6824 2.55441L11.0008 14.0664C10.997 14.1296 11.0081 14.1927 11.033 14.2509C11.0579 14.309 11.096 14.3605 11.1443 14.4013C11.1926 14.4422 11.2498 14.4712 11.3113 14.486C11.3727 14.5009 11.4368 14.5013 11.4985 14.487L14.5835 13.7751C14.8722 13.7085 15.133 13.9627 15.0736 14.253L14.1571 18.7413C14.0955 19.0434 14.379 19.3016 14.6739 19.212L16.5795 18.6331C16.8748 18.5435 17.1587 18.8024 17.0962 19.1048L15.6397 26.1548C15.5485 26.5959 16.1351 26.8363 16.3797 26.4583L16.5431 26.2058L25.5724 8.18616C25.7237 7.88446 25.4628 7.54043 25.1316 7.60443L21.9559 8.21729C21.6575 8.27482 21.4037 7.9969 21.4878 7.70504L23.5605 0.519982C23.6448 0.227375 23.3898 -0.0506636 23.0911 0.00785783Z" fill="url(#lightning)"/>
  <defs>
    <linearGradient id="lightning" x1="43.376%" x2="50.316%" y1="2.242%" y2="89.03%">
      <stop offset="0%" stop-color="#FFEA83"/>
      <stop offset="8.333%" stop-color="#FFDD35"/>
      <stop offset="100%" stop-color="#FFA800"/>
    </linearGradient>
  </defs>
</svg>
  